HIERARCHY
ROOT Hips
{
  OFFSET 5.80788e-005 67.184 3.4734
  CHANNELS 6 Xposition Yposition Zposition Zrotation Xrotation Yrotation
  JOINT Chest
  {
    OFFSET 0 8.7983 -4.7612
    CHANNELS 6 Xposition Yposition Zposition Zrotation Xrotation Yrotation
    JOINT Chest2
    {
      OFFSET 0 8.0291 0.4195
      CHANNELS 6 Xposition Yposition Zposition Zrotation Xrotation Yrotation
      JOINT Chest3
      {
        OFFSET 0 9.9351 -2.2114
        CHANNELS 6 Xposition Yposition Zposition Zrotation Xrotation Yrotation
        JOINT Neck
        {
          OFFSET 0 22.3885 -0.4656
          CHANNELS 6 Xposition Yposition Zposition Zrotation Xrotation Yrotation
          JOINT Head
          {
            OFFSET -0.0001 12.643 3.4389
            CHANNELS 6 Xposition Yposition Zposition Zrotation Xrotation Yrotation
            End Site
            {
              OFFSET 0.0001 17.6655 0.5274
            }
          }
        }
        JOINT LeftCollar
        {
          OFFSET 2.2603 21.606 7.4023
          CHANNELS 6 Xposition Yposition Zposition Zrotation Xrotation Yrotation
          JOINT LeftShoulder
          {
            OFFSET 13.5163 -1.1332 -5.0146
            CHANNELS 6 Xposition Yposition Zposition Zrotation Xrotation Yrotation
            JOINT LeftElbow
            {
              OFFSET -0.0995 -28.05 -0.2431
              CHANNELS 6 Xposition Yposition Zposition Zrotation Xrotation Yrotation
              JOINT LeftWrist
              {
                OFFSET 0.0679 -23.3996 -0.1402
                CHANNELS 6 Xposition Yposition Zposition Zrotation Xrotation Yrotation
                JOINT LeftFinger1
                {
                  OFFSET 0.7932 -9.069 2.5189
                  CHANNELS 6 Xposition Yposition Zposition Zrotation Xrotation Yrotation
                  JOINT LeftFinger11
                  {
                    OFFSET -0.8272 -3.3923 0.5977
                    CHANNELS 6 Xposition Yposition Zposition Zrotation Xrotation Yrotation
                    JOINT LeftFinger12
                    {
                      OFFSET -0.5649 -2.3158 0.4082
                      CHANNELS 6 Xposition Yposition Zposition Zrotation Xrotation Yrotation
                      End Site
                      {
                        OFFSET -0.4919 -1.6479 0.2673
                      }
                    }
                  }
                }
                JOINT LeftFinger2
                {
                  OFFSET 0.9159 -9.2044 0.2193
                  CHANNELS 6 Xposition Yposition Zposition Zrotation Xrotation Yrotation
                  JOINT LeftFinger21
                  {
                    OFFSET 0.0117 -4.1944 -0.0248
                    CHANNELS 6 Xposition Yposition Zposition Zrotation Xrotation Yrotation
                    JOINT LeftFinger22
                    {
                      OFFSET 0.0071 -2.3249 -0.0142
                      CHANNELS 6 Xposition Yposition Zposition Zrotation Xrotation Yrotation
                      End Site
                      {
                        OFFSET -0.1475 -2.0882 0.0028
                      }
                    }
                  }
                }
                JOINT LeftFinger3
                {
                  OFFSET 0.6113 -8.7231 -2.0637
                  CHANNELS 6 Xposition Yposition Zposition Zrotation Xrotation Yrotation
                  JOINT LeftFinger31
                  {
                    OFFSET -0.1927 -3.8059 -0.2383
                    CHANNELS 6 Xposition Yposition Zposition Zrotation Xrotation Yrotation
                    JOINT LeftFinger32
                    {
                      OFFSET -0.1091 -2.1688 -0.1362
                      CHANNELS 6 Xposition Yposition Zposition Zrotation Xrotation Yrotation
                      End Site
                      {
                        OFFSET -0.2358 -1.9176 -0.0906
                      }
                    }
                  }
                }
                JOINT LeftFinger4
                {
                  OFFSET -0.6151 -8.0947 -3.5641
                  CHANNELS 6 Xposition Yposition Zposition Zrotation Xrotation Yrotation
                  JOINT LeftFinger41
                  {
                    OFFSET -0.4882 -2.341 -0.6462
                    CHANNELS 6 Xposition Yposition Zposition Zrotation Xrotation Yrotation
                    JOINT LeftFinger42
                    {
                      OFFSET -0.3575 -1.7167 -0.4742
                      CHANNELS 6 Xposition Yposition Zposition Zrotation Xrotation Yrotation
                      End Site
                      {
                        OFFSET -0.4187 -1.5237 -0.3496
                      }
                    }
                  }
                }
                JOINT LeftFinger0
                {
                  OFFSET -1.42 -1.8761 1.4223
                  CHANNELS 6 Xposition Yposition Zposition Zrotation Xrotation Yrotation
                  JOINT LeftFinger01
                  {
                    OFFSET -1.1471 -3.4929 2.6334
                    CHANNELS 6 Xposition Yposition Zposition Zrotation Xrotation Yrotation
                    JOINT LeftFinger02
                    {
                      OFFSET -0.823 -2.3 1.6571
                      CHANNELS 6 Xposition Yposition Zposition Zrotation Xrotation Yrotation
                      End Site
                      {
                        OFFSET -0.5822 -1.6914 1.1582
                      }
                    }
                  }
                }
              }
            }
          }
        }
        JOINT RightCollar
        {
          OFFSET -2.2603 21.606 7.4023
          CHANNELS 6 Xposition Yposition Zposition Zrotation Xrotation Yrotation
          JOINT RightShoulder
          {
            OFFSET -13.5187 -1.1334 -5.0155
            CHANNELS 6 Xposition Yposition Zposition Zrotation Xrotation Yrotation
            JOINT RightElbow
            {
              OFFSET 0.0994 -28.0499 -0.2431
              CHANNELS 6 Xposition Yposition Zposition Zrotation Xrotation Yrotation
              JOINT RightWrist
              {
                OFFSET -0.0679 -23.3996 -0.1402
                CHANNELS 6 Xposition Yposition Zposition Zrotation Xrotation Yrotation
                JOINT RightFinger1
                {
                  OFFSET -0.7932 -9.0691 2.5189
                  CHANNELS 6 Xposition Yposition Zposition Zrotation Xrotation Yrotation
                  JOINT RightFinger11
                  {
                    OFFSET 0.8272 -3.3923 0.5977
                    CHANNELS 6 Xposition Yposition Zposition Zrotation Xrotation Yrotation
                    JOINT RightFinger12
                    {
                      OFFSET 0.565 -2.3158 0.4082
                      CHANNELS 6 Xposition Yposition Zposition Zrotation Xrotation Yrotation
                      End Site
                      {
                        OFFSET 0.4919 -1.6479 0.2673
                      }
                    }
                  }
                }
                JOINT RightFinger2
                {
                  OFFSET -0.916 -9.2044 0.2193
                  CHANNELS 6 Xposition Yposition Zposition Zrotation Xrotation Yrotation
                  JOINT RightFinger21
                  {
                    OFFSET -0.0117 -4.1944 -0.0248
                    CHANNELS 6 Xposition Yposition Zposition Zrotation Xrotation Yrotation
                    JOINT RightFinger22
                    {
                      OFFSET -0.0071 -2.3249 -0.0142
                      CHANNELS 6 Xposition Yposition Zposition Zrotation Xrotation Yrotation
                      End Site
                      {
                        OFFSET 0.1475 -2.0882 0.0028
                      }
                    }
                  }
                }
                JOINT RightFinger3
                {
                  OFFSET -0.6113 -8.7231 -2.0637
                  CHANNELS 6 Xposition Yposition Zposition Zrotation Xrotation Yrotation
                  JOINT RightFinger31
                  {
                    OFFSET 0.1927 -3.8059 -0.2383
                    CHANNELS 6 Xposition Yposition Zposition Zrotation Xrotation Yrotation
                    JOINT RightFinger32
                    {
                      OFFSET 0.1091 -2.1688 -0.1362
                      CHANNELS 6 Xposition Yposition Zposition Zrotation Xrotation Yrotation
                      End Site
                      {
                        OFFSET 0.2358 -1.9176 -0.0906
                      }
                    }
                  }
                }
                JOINT RightFinger4
                {
                  OFFSET 0.6151 -8.0947 -3.564
                  CHANNELS 6 Xposition Yposition Zposition Zrotation Xrotation Yrotation
                  JOINT RightFinger41
                  {
                    OFFSET 0.4882 -2.341 -0.6462
                    CHANNELS 6 Xposition Yposition Zposition Zrotation Xrotation Yrotation
                    JOINT RightFinger42
                    {
                      OFFSET 0.3574 -1.7166 -0.4742
                      CHANNELS 6 Xposition Yposition Zposition Zrotation Xrotation Yrotation
                      End Site
                      {
                        OFFSET 0.4187 -1.5237 -0.3496
                      }
                    }
                  }
                }
                JOINT RightFinger0
                {
                  OFFSET 1.4199 -1.8761 1.4221
                  CHANNELS 6 Xposition Yposition Zposition Zrotation Xrotation Yrotation
                  JOINT RightFinger01
                  {
                    OFFSET 1.1472 -3.4929 2.6336
                    CHANNELS 6 Xposition Yposition Zposition Zrotation Xrotation Yrotation
                    JOINT RightFinger02
                    {
                      OFFSET 0.8229 -2.3 1.6571
                      CHANNELS 6 Xposition Yposition Zposition Zrotation Xrotation Yrotation
                      End Site
                      {
                        OFFSET 0.5822 -1.6914 1.1582
                      }
                    }
                  }
                }
              }
            }
          }
        }
      }
    }
  }
  JOINT RightHip
  {
    OFFSET -9.412 3.9771 -0.7758
    CHANNELS 6 Xposition Yposition Zposition Zrotation Xrotation Yrotation
    JOINT RightKnee
    {
      OFFSET -0.7531 -40.938 0
      CHANNELS 6 Xposition Yposition Zposition Zrotation Xrotation Yrotation
      JOINT RightAnkle
      {
        OFFSET 0 -40.1986 0
        CHANNELS 6 Xposition Yposition Zposition Zrotation Xrotation Yrotation
        JOINT RightToe
        {
          OFFSET 0 -4.4182 9.239
          CHANNELS 6 Xposition Yposition Zposition Zrotation Xrotation Yrotation
          End Site
          {
            OFFSET 0 0 6.1981
          }
        }
      }
    }
  }
  JOINT LeftHip
  {
    OFFSET 9.4119 3.9773 -0.7758
    CHANNELS 6 Xposition Yposition Zposition Zrotation Xrotation Yrotation
    JOINT LeftKnee
    {
      OFFSET 0.7532 -40.9383 0
      CHANNELS 6 Xposition Yposition Zposition Zrotation Xrotation Yrotation
      JOINT LeftAnkle
      {
        OFFSET 0 -40.1986 0
        CHANNELS 6 Xposition Yposition Zposition Zrotation Xrotation Yrotation
        JOINT LeftToe
        {
          OFFSET 0 -4.4182 9.239
          CHANNELS 6 Xposition Yposition Zposition Zrotation Xrotation Yrotation
          End Site
          {
            OFFSET 0 0 6.1981
          }
        }
      }
    }
  }
}
MOTION
Frames:	4
Frame Time:	0.0333333
0.652261 16.4845 9.26005 -1.56555e-007 22.9239 -5.78923e-008 1.11022e-016 8.7983 -4.7612 0.181079 -2.25123 -0.0399274 1.11022e-016 8.0291 0.4195 0.361006 -4.50257 -0.0728121 -2.22045e-016 9.9351 -2.2114 0.361005 -4.50257 -0.0728119 0 22.3885 -0.4656 -1.32525 -20.9974 -1.52717 -0.0001 12.643 3.4389 1.47506e-007 -6.00165 1.91846e-007 2.2603 21.606 7.4023 -30.9448 -45.0245 -30.3798 13.5163 -1.1332 -5.0146 70.1282 37.6771 18.2483 -0.0995 -28.05 -0.2431 -50.8628 -7.1238 15.5354 0.0679 -23.3996 -0.1402 7.68747 4.46696 -7.55762 0.7932 -9.069 2.5189 1.51959e-006 -9.48187e-007 2.16282e-006 -0.8272 -3.3923 0.5977 3.18055e-015 0 2.22639e-014 -0.5649 -2.3158 0.4082 3.18055e-015 3.18055e-015 9.54166e-015 0.9159 -9.2044 0.2193 1.51959e-006 -9.48187e-007 2.16282e-006 0.0117 -4.1944 -0.0248 -0.0128197 0.00233322 7.32399e-005 0.0071 -2.3249 -0.0142 -6.05988e-006 3.2317e-006 -4.78394e-008 0.6113 -8.7231 -2.0637 1.51959e-006 -9.48187e-007 2.16282e-006 -0.1927 -3.8059 -0.2383 -0.0160387 0.00301422 0.000844098 -0.1091 -2.1688 -0.1362 6.36111e-015 0 3.18055e-015 -0.6151 -8.0947 -3.5641 1.51959e-006 -9.48187e-007 2.16282e-006 -0.4882 -2.341 -0.6462 -0.0126003 0.0031351 0.00282569 -0.3575 -1.7167 -0.4742 -3.18055e-015 3.18055e-015 6.36111e-015 -1.42 -1.8761 1.4223 1.51959e-006 -9.48187e-007 2.16282e-006 -1.1471 -3.4929 2.6334 3.18055e-015 0 2.22639e-014 -0.823 -2.3 1.6571 3.18055e-015 3.18055e-015 9.54166e-015 -2.2603 21.606 7.4023 28.1359 -45.2923 23.327 -13.5187 -1.1334 -5.0155 -70.6274 33.9079 -16.0685 0.0994 -28.0499 -0.2431 51.7065 -6.21809 -14.554 -0.0679 -23.3996 -0.1402 -7.96887 4.10208 7.6075 -0.7932 -9.0691 2.5189 -0 0 6.36111e-015 0.8272 -3.3923 0.5977 -3.69172e-006 1.93859e-006 3.73225e-006 0.565 -2.3158 0.4082 3.7999e-006 -1.25386e-007 -6.55176e-006 -0.916 -9.2044 0.2193 -0 0 6.36111e-015 -0.0117 -4.1944 -0.0248 0.0129302 0.00231615 -7.89665e-005 -0.0071 -2.3249 -0.0142 -1.42969e-006 2.207e-006 -2.16491e-006 -0.6113 -8.7231 -2.0637 -0 0 6.36111e-015 0.1927 -3.8059 -0.2383 0.0163835 0.00304346 -0.000875526 0.1091 -2.1688 -0.1362 7.68693e-007 4.76803e-006 -3.27285e-007 0.6151 -8.0947 -3.564 -0 0 6.36111e-015 0.4882 -2.341 -0.6462 0.0145659 0.0036725 -0.00326036 0.3574 -1.7166 -0.4742 -5.12899e-022 1.84791e-006 1.59028e-014 1.4199 -1.8761 1.4221 -0 0 6.36111e-015 1.1472 -3.4929 2.6336 -3.69172e-006 1.93859e-006 3.73225e-006 0.8229 -2.3 1.6571 3.7999e-006 -1.25386e-007 -6.55176e-006 -9.412 3.9771 -0.7758 -129.996 -40.1858 -143.75 -0.7531 -40.938 3.55271e-015 -146.876 61.3064 148.475 -3.55271e-015 -40.1986 7.10543e-015 -2.96087 -15.7008 -8.11542 0 -4.4182 9.239 2.52972e-006 1.29871e-006 -1.86501e-007 9.4119 3.9773 -0.7758 129.992 -40.2044 143.717 0.7532 -40.9383 3.55271e-015 146.931 61.3436 -148.549 -3.55271e-015 -40.1986 0 2.96148 -15.6985 8.09811 -3.55271e-015 -4.4182 9.239 -2.52984e-006 4.62972e-007 1.86164e-007 
0.65226 16.6443 9.11174 5.84913e-009 23.3497 1.29079e-008 0 8.7983 -4.7612 0.180811 -2.12109 -0.0411695 0 8.0291 0.4195 0.360466 -4.24232 -0.0757131 1.11022e-016 9.9351 -2.2114 0.360467 -4.24233 -0.0757133 0 22.3885 -0.4656 -1.45797 -20.9961 -1.68009 -0.0001 12.643 3.4389 -1.9973e-007 -6.21658 -8.41019e-007 2.2603 21.606 7.4023 -30.8819 -45.1443 -30.5697 13.5163 -1.1332 -5.0146 70.1282 37.6771 18.2483 -0.0995 -28.05 -0.2431 -51.0762 -7.11458 15.4996 0.0679 -23.3996 -0.1402 7.13051 3.8475 -7.25547 0.7932 -9.069 2.5189 3.18055e-015 -1.77727e-006 6.36111e-015 -0.8272 -3.3923 0.5977 3.18055e-015 -3.18055e-015 -9.54166e-015 -0.5649 -2.3158 0.4082 7.56221e-007 -7.23115e-007 -3.53599e-007 0.9159 -9.2044 0.2193 3.18055e-015 -1.77727e-006 6.36111e-015 0.0117 -4.1944 -0.0248 -0.0128012 0.00231874 9.22891e-005 0.0071 -2.3249 -0.0142 -1.85754e-022 -1.67312e-006 -6.36111e-015 0.6113 -8.7231 -2.0637 3.18055e-015 -1.77727e-006 6.36111e-015 -0.1927 -3.8059 -0.2383 -0.0160387 0.00298983 0.000859219 -0.1091 -2.1688 -0.1362 -2.18066e-006 3.35398e-006 -5.42208e-006 -0.6151 -8.0947 -3.5641 3.18055e-015 -1.77727e-006 6.36111e-015 -0.4882 -2.341 -0.6462 -0.0125425 0.00310482 0.0028236 -0.3575 -1.7167 -0.4742 -7.56201e-007 -1.05399e-006 3.5355e-007 -1.42 -1.8761 1.4223 3.18055e-015 -1.77727e-006 6.36111e-015 -1.1471 -3.4929 2.6334 3.18055e-015 -3.18055e-015 -9.54166e-015 -0.823 -2.3 1.6571 7.56221e-007 -7.23115e-007 -3.53599e-007 -2.2603 21.606 7.4023 28.1763 -45.417 23.5792 -13.5187 -1.1334 -5.0155 -70.6274 33.9079 -16.0685 0.0994 -28.0499 -0.2431 51.8728 -6.21463 -14.5227 -0.0679 -23.3996 -0.1402 -7.39548 3.51388 7.31823 -0.7932 -9.0691 2.5189 -6.36111e-015 -3.18055e-015 -0 0.8272 -3.3923 0.5977 -0 -3.18055e-015 -0 0.565 -2.3158 0.4082 1.64144e-006 -3.3563e-007 -3.47751e-006 -0.916 -9.2044 0.2193 -6.36111e-015 -3.18055e-015 -0 -0.0117 -4.1944 -0.0248 0.0129288 0.00231243 -8.65166e-005 -0.0071 -2.3249 -0.0142 1.27835e-006 -5.13553e-006 -8.57675e-007 -0.6113 -8.7231 -2.0637 -6.36111e-015 -3.18055e-015 -0 0.1927 -3.8059 -0.2383 0.01631 0.00303113 -0.000870733 0.1091 -2.1688 -0.1362 1.27806e-006 -5.1356e-006 -8.57587e-007 0.6151 -8.0947 -3.564 -6.36111e-015 -3.18055e-015 -0 0.4882 -2.341 -0.6462 0.0146295 0.00368112 -0.00328082 0.3574 -1.7166 -0.4742 2.04658e-006 -5.67539e-006 -1.18531e-006 1.4199 -1.8761 1.4221 -6.36111e-015 -3.18055e-015 -0 1.1472 -3.4929 2.6336 -0 -3.18055e-015 -0 0.8229 -2.3 1.6571 1.64144e-006 -3.3563e-007 -3.47751e-006 -9.412 3.9771 -0.7758 -130.24 -40.2175 -144.102 -0.7531 -40.938 -3.55271e-015 -146.591 61.5549 148.241 0 -40.1986 0 -2.90518 -15.624 -8.3209 0 -4.4182 9.239 8.43251e-007 7.11303e-007 -6.21569e-008 9.4119 3.9773 -0.7758 130.236 -40.2361 144.07 0.7532 -40.9383 0 146.647 61.5918 -148.315 -3.55271e-015 -40.1986 0 2.90593 -15.6221 8.30382 0 -4.4182 9.239 1.15633e-007 5.10605e-008 -2.61141e-006 
0.65226 16.8046 8.96339 -8.19221e-008 23.7755 -4.79638e-008 1.11022e-016 8.7983 -4.7612 0.180545 -1.99096 -0.0424094 0 8.0291 0.4195 0.35994 -3.98204 -0.0786075 0 9.9351 -2.2114 0.359939 -3.98205 -0.0786075 2.22045e-016 22.3885 -0.4656 -1.5907 -20.9947 -1.83305 -0.0001 12.643 3.4389 1.06063e-007 -6.43149 -2.33156e-007 2.2603 21.606 7.4023 -30.8195 -45.2643 -30.7598 13.5163 -1.1332 -5.0146 70.1282 37.677 18.2483 -0.0995 -28.05 -0.2431 -51.2897 -7.10516 15.4637 0.0679 -23.3996 -0.1402 6.57733 3.22527 -6.95952 0.7932 -9.069 2.5189 -3.18055e-015 -6.36111e-015 9.54166e-015 -0.8272 -3.3923 0.5977 -7.55779e-007 -1.05288e-006 3.54609e-007 -0.5649 -2.3158 0.4082 7.55779e-007 -3.56985e-006 -3.54609e-007 0.9159 -9.2044 0.2193 -3.18055e-015 -6.36111e-015 9.54166e-015 0.0117 -4.1944 -0.0248 -0.0128579 0.00233468 8.0952e-005 0.0071 -2.3249 -0.0142 -9.72465e-006 1.35557e-006 3.67826e-006 0.6113 -8.7231 -2.0637 -3.18055e-015 -6.36111e-015 9.54166e-015 -0.1927 -3.8059 -0.2383 -0.0160463 0.0029954 0.000853434 -0.1091 -2.1688 -0.1362 -1.456e-008 -1.71323e-006 -2.87248e-006 -0.6151 -8.0947 -3.5641 -3.18055e-015 -6.36111e-015 9.54166e-015 -0.4882 -2.341 -0.6462 -0.0125524 0.00310825 0.00281604 -0.3575 -1.7167 -0.4742 3.53113e-031 6.36111e-015 -3.18055e-015 -1.42 -1.8761 1.4223 -3.18055e-015 -6.36111e-015 9.54166e-015 -1.1471 -3.4929 2.6334 -7.55779e-007 -1.05288e-006 3.54609e-007 -0.823 -2.3 1.6571 7.55779e-007 -3.56985e-006 -3.54609e-007 -2.2603 21.606 7.4023 28.2177 -45.5417 23.8322 -13.5187 -1.1334 -5.0155 -70.6274 33.9079 -16.0685 0.0994 -28.0499 -0.2431 52.0389 -6.21115 -14.4914 -0.0679 -23.3996 -0.1402 -6.82543 2.92296 7.03502 -0.7932 -9.0691 2.5189 -3.18055e-015 -1.59028e-014 -6.36111e-015 0.8272 -3.3923 0.5977 7.06225e-031 -1.27222e-014 3.18055e-015 0.565 -2.3158 0.4082 3.18055e-015 1.84334e-006 -3.18055e-015 -0.916 -9.2044 0.2193 -3.18055e-015 -1.59028e-014 -6.36111e-015 -0.0117 -4.1944 -0.0248 0.0130019 0.00233639 -8.34217e-005 -0.0071 -2.3249 -0.0142 -6.67315e-007 -3.0685e-007 -2.49477e-006 -0.6113 -8.7231 -2.0637 -3.18055e-015 -1.59028e-014 -6.36111e-015 0.1927 -3.8059 -0.2383 0.0163477 0.0030465 -0.000874708 0.1091 -2.1688 -0.1362 -1.9416e-006 1.18494e-006 -1.63256e-006 0.6151 -8.0947 -3.564 -3.18055e-015 -1.59028e-014 -6.36111e-015 0.4882 -2.341 -0.6462 0.0145569 0.00368547 -0.0032502 0.3574 -1.7166 -0.4742 -7.68037e-007 1.09538e-006 3.28586e-007 1.4199 -1.8761 1.4221 -3.18055e-015 -1.59028e-014 -6.36111e-015 1.1472 -3.4929 2.6336 7.06225e-031 -1.27222e-014 3.18055e-015 0.8229 -2.3 1.6571 3.18055e-015 1.84334e-006 -3.18055e-015 -9.412 3.9771 -0.7758 -130.484 -40.248 -144.455 -0.7531 -40.938 3.55271e-015 -146.303 61.8027 148.002 3.55271e-015 -40.1986 0 -2.84933 -15.5475 -8.52639 0 -4.4182 9.239 8.43266e-007 1.5585e-007 -6.21301e-008 9.4119 3.9773 -0.7758 130.48 -40.2666 144.423 0.7532 -40.9383 0 146.358 61.8394 -148.076 3.55271e-015 -40.1986 0 2.85025 -15.5458 8.50967 -7.10543e-015 -4.4182 9.239 -5.96354e-016 -2.76899e-007 -3.18055e-015 
0.652261 16.9652 8.81502 -7.16245e-008 24.2013 -1.46424e-008 0 8.7983 -4.7612 0.180286 -1.8609 -0.0436471 0 8.0291 0.4195 0.359437 -3.72187 -0.0814965 0 9.9351 -2.2114 0.359437 -3.72188 -0.0814964 -2.22045e-016 22.3885 -0.4656 -1.72349 -20.993 -1.98603 -0.0001 12.643 3.4389 1.229e-007 -6.6464 -4.56611e-008 2.2603 21.606 7.4023 -30.7574 -45.3843 -30.9501 13.5163 -1.1332 -5.0146 70.1282 37.6771 18.2483 -0.0995 -28.05 -0.2431 -51.5032 -7.09566 15.428 0.0679 -23.3996 -0.1402 6.02788 2.60042 -6.66994 0.7932 -9.06901 2.5189 7.55348e-007 1.05165e-006 -3.55567e-007 -0.8272 -3.3923 0.5977 2.78343e-006 -1.36825e-005 1.52949e-005 -0.5649 -2.3158 0.4082 -3.18055e-015 6.36111e-015 -1.27222e-014 0.9159 -9.20441 0.2193 7.55348e-007 1.05165e-006 -3.55567e-007 0.0117 -4.1944 -0.0248 -0.0127908 0.00231563 9.19599e-005 0.0071 -2.3249 -0.0142 -5.29669e-031 -3.18055e-015 -9.54166e-015 0.6113 -8.72311 -2.0637 7.55348e-007 1.05165e-006 -3.55567e-007 -0.1927 -3.8059 -0.2383 -0.016005 0.00296917 0.000865852 -0.1091 -2.1688 -0.1362 -6.36111e-015 3.18055e-015 9.54166e-015 -0.6151 -8.09471 -3.5641 7.55348e-007 1.05165e-006 -3.55567e-007 -0.4882 -2.341 -0.6462 -0.0126012 0.00311661 0.00284159 -0.3575 -1.7167 -0.4742 3.53113e-031 -6.36111e-015 3.18055e-015 -1.42 -1.8761 1.4223 7.55348e-007 1.05165e-006 -3.55567e-007 -1.1471 -3.4929 2.6334 2.78343e-006 -1.36825e-005 1.52949e-005 -0.823 -2.3 1.6571 -3.18055e-015 6.36111e-015 -1.27222e-014 -2.2603 21.606 7.4023 28.2599 -45.666 24.0857 -13.5187 -1.1334 -5.0155 -70.6274 33.9079 -16.0685 0.0994 -28.0499 -0.2431 52.2052 -6.20755 -14.4601 -0.0679 -23.3996 -0.1402 -6.25887 2.32948 6.75789 -0.7932 -9.0691 2.5189 0 0 -3.18055e-015 0.8272 -3.3923 0.5977 1.84377e-006 -4.40515e-006 4.45451e-006 0.565 -2.3158 0.4082 7.67745e-007 7.46335e-007 -3.29225e-007 -0.916 -9.2044 0.2193 0 0 -3.18055e-015 -0.0117 -4.1944 -0.0248 0.012953 0.00231471 -9.02427e-005 -0.0071 -2.3249 -0.0142 -3.18055e-015 6.36111e-015 -3.18055e-015 -0.6113 -8.7231 -2.0637 0 0 -3.18055e-015 0.1927 -3.8059 -0.2383 0.0163488 0.0030371 -0.00087828 0.1091 -2.1688 -0.1362 1.53542e-006 -3.94884e-007 -6.58363e-007 0.6151 -8.0947 -3.564 0 0 -3.18055e-015 0.4882 -2.341 -0.6462 0.0145929 0.00368351 -0.00326798 0.3574 -1.7166 -0.4742 6.70438e-007 -1.53217e-006 2.49593e-006 1.4199 -1.8761 1.4221 0 0 -3.18055e-015 1.1472 -3.4929 2.6336 1.84377e-006 -4.40515e-006 4.45451e-006 0.8229 -2.3 1.6571 7.67745e-007 7.46335e-007 -3.29225e-007 -9.412 3.9771 -0.7758 -130.728 -40.2772 -144.808 -0.7531 -40.938 3.55271e-015 -146.009 62.0499 147.758 -3.55271e-015 -40.1986 0 -2.79328 -15.471 -8.73203 0 -4.4182 9.239 -3.97569e-016 2.5842e-015 -0 9.4119 3.9773 -0.7758 130.724 -40.2959 144.776 0.7532 -40.9383 3.55271e-015 146.065 62.0864 -147.832 0 -40.1986 0 2.79436 -15.4697 8.71555 -3.55271e-015 -4.4182 9.239 1.15294e-007 -9.90876e-008 -2.61142e-006 
